<mxfile host="app.diagrams.net" agent="Mozilla/5.0 (Windows NT 10.0; Win64; x64) AppleWebKit/537.36 (KHTML, like Gecko) Chrome/131.0.0.0 Safari/537.36" version="25.0.1">
  <diagram name="PÃ¡gina-1" id="lhwlSX24EnPxQB_WYpzD">
    <mxGraphModel dx="2206" dy="1135" grid="1" gridSize="10" guides="1" tooltips="1" connect="1" arrows="1" fold="1" page="1" pageScale="1" pageWidth="827" pageHeight="1169" math="0" shadow="0">
      <root>
        <mxCell id="0" />
        <mxCell id="1" parent="0" />
        <mxCell id="MNZySW5f2h_NPKp3rsub-1" value="&lt;font style=&quot;font-size: 22px;&quot;&gt;ECU&lt;/font&gt;" style="swimlane;whiteSpace=wrap;html=1;startSize=50;labelBackgroundColor=none;fillColor=#B2C9AB;strokeColor=#788AA3;fontColor=#46495D;" vertex="1" parent="1">
          <mxGeometry x="810" y="670" width="550" height="360" as="geometry" />
        </mxCell>
        <mxCell id="MNZySW5f2h_NPKp3rsub-2" value="Expansion board" style="whiteSpace=wrap;html=1;fillColor=#B2C9AB;strokeColor=#788AA3;rounded=1;labelBackgroundColor=none;fontColor=#46495D;" vertex="1" parent="MNZySW5f2h_NPKp3rsub-1">
          <mxGeometry x="195" y="120" width="157" height="35" as="geometry" />
        </mxCell>
        <mxCell id="REhTcPAPJtTEF4eoI0Fo-2" value="&lt;font style=&quot;font-size: 20px;&quot;&gt;Jetson Nano&lt;/font&gt;" style="rounded=1;whiteSpace=wrap;html=1;fillColor=#B2C9AB;strokeColor=#788AA3;labelBackgroundColor=none;fontColor=#46495D;" parent="MNZySW5f2h_NPKp3rsub-1" vertex="1">
          <mxGeometry x="195" y="155" width="160" height="80" as="geometry" />
        </mxCell>
        <mxCell id="MNZySW5f2h_NPKp3rsub-16" value="" style="shape=link;html=1;rounded=0;width=16.25;fillColor=#fa6800;strokeColor=#C73500;exitX=0;exitY=0.5;exitDx=0;exitDy=0;strokeWidth=4;labelBackgroundColor=none;fontColor=default;" edge="1" parent="MNZySW5f2h_NPKp3rsub-1" source="MNZySW5f2h_NPKp3rsub-2">
          <mxGeometry width="100" relative="1" as="geometry">
            <mxPoint x="212" y="140" as="sourcePoint" />
            <mxPoint x="-60" y="142.5" as="targetPoint" />
          </mxGeometry>
        </mxCell>
        <mxCell id="MNZySW5f2h_NPKp3rsub-62" value="" style="shape=link;html=1;rounded=0;width=16.25;fillColor=#1ba1e2;strokeColor=#006EAF;strokeWidth=4;labelBackgroundColor=none;fontColor=default;" edge="1" parent="MNZySW5f2h_NPKp3rsub-1">
          <mxGeometry width="100" relative="1" as="geometry">
            <mxPoint x="272.73" y="235" as="sourcePoint" />
            <mxPoint x="273" y="510" as="targetPoint" />
          </mxGeometry>
        </mxCell>
        <mxCell id="MNZySW5f2h_NPKp3rsub-4" value="Cluster" style="swimlane;whiteSpace=wrap;html=1;labelBackgroundColor=none;fillColor=#B2C9AB;strokeColor=#788AA3;fontColor=#46495D;" vertex="1" parent="1">
          <mxGeometry x="184" y="620" width="460" height="400" as="geometry" />
        </mxCell>
        <mxCell id="MNZySW5f2h_NPKp3rsub-5" value="Can bus shield" style="whiteSpace=wrap;html=1;fillColor=#B2C9AB;strokeColor=#788AA3;rounded=1;labelBackgroundColor=none;fontColor=#46495D;" vertex="1" parent="MNZySW5f2h_NPKp3rsub-4">
          <mxGeometry x="150" y="100" width="166.27" height="30" as="geometry" />
        </mxCell>
        <mxCell id="MNZySW5f2h_NPKp3rsub-7" style="edgeStyle=orthogonalEdgeStyle;rounded=0;orthogonalLoop=1;jettySize=auto;html=1;entryX=0.5;entryY=0;entryDx=0;entryDy=0;labelBackgroundColor=none;strokeColor=#788AA3;fontColor=default;" edge="1" parent="MNZySW5f2h_NPKp3rsub-4" source="MNZySW5f2h_NPKp3rsub-6" target="REhTcPAPJtTEF4eoI0Fo-21">
          <mxGeometry relative="1" as="geometry" />
        </mxCell>
        <mxCell id="MNZySW5f2h_NPKp3rsub-6" value="&lt;font style=&quot;font-size: 15px;&quot;&gt;Raspberry pi&lt;/font&gt;" style="rounded=1;whiteSpace=wrap;html=1;fillColor=#B2C9AB;strokeColor=#788AA3;labelBackgroundColor=none;fontColor=#46495D;" vertex="1" parent="MNZySW5f2h_NPKp3rsub-4">
          <mxGeometry x="150" y="130" width="166.27" height="80" as="geometry" />
        </mxCell>
        <mxCell id="REhTcPAPJtTEF4eoI0Fo-21" value="" style="shape=image;verticalLabelPosition=bottom;labelBackgroundColor=none;verticalAlign=top;aspect=fixed;imageAspect=0;image=data:image/webp,UklGRiJGAABXRUJQVlA4IBZGAADw8gCdASqIAhgBPjEYikOiIaER+XUgIAMEs7d/9t3m/C9WRoBqUbBMgGm6/L9Hs25d9iftfzF9rPl3xj+YagFnV2n/b8q7mr/qfc/8yP9t/1f9V7mv0//zfcD/Wr/ff2b8dPjN/Yf3e/37/m/k78Cv6H/d//D/kfey/4H68e6r/Nf7n2Bv6r/iP+t69HsQ/ux7BX9F/wH/e9d79y/hW/uH/D/b34Gv2U/6357fIB/4/UA/9/Wj+af4T/K/kJ5vP3P+9/kx+8Prn5GvRfsp/fP/N/lvviu99nOpT8v+7v4b++ftH/gv3O+6P9N/wP8z4y/JH+s/MX4BfyD+Uf3T+3fst/hf29+sX8D9iO9U2n/g/8//LewR69fNf8T/ff25/uP7nfYr8r/r/Rf7J/8D8zvoB/mP9L/w/9p/av+7///3kP9x+f/o+/g/9D+r3wA/yj+gf5f+2f6P/lf57///RJ/of6D/Xf+v/Y+7D6V/5f+T/d//Vf///6/oT/LP6V/qP7n/lv+v/if///7vvL/83uY/cf/4e6T+u3/W/P8jPhtzorZOyXedFbJ2S7zorZOyXedFbJ2S7zoq5f+jwSuPYVT9TGm2qkx19d75loe1PlC6LvFyGCg2HdoJQveE2lZBEieydku86K2QIUcwC76hJeM9OWmbtOKRXqDJHjY4Ga+pdpq19YC+MVMVxtzorZOyXeTb+V8b5O/BjRPSpsSrILEwV+eJo+acK6G+xj0ZFalT6HKpFc05z2RDLTixUbI+Lb1E2zjsTj4KX7p6aEwasxfneK/gENpqWjPWX0Ujb5/W3MimYVztKbsP7s0SfXk+uS0TFrhYQY6PWphAVtxtMMqwpH9iB4xPMQ1e2pbJn+DI2zWfUgweZr4VMdOb5apoG/rz4pJty8xKQNOagtNqj/lhfGhzl6Pi6pElJJS/6mSmFAryY6iZn4RIasXNqB8PaSxank7cjx09LMMMhtWFElNLrT62Tsl3mBWL2kyBsOXbUXetk7C5DaE6MA9zIrkJ/p1IEb8jt+gpISuzKw8d1cXPa1g8Dq3tUiJ9e+Nw+qm8gJaEbdlFkIG1uZ0nRInX+JyLrkjGknuKA94QYiv1sfQ/3LbRLcKGJT8X8M7r7hCcFokuz7/jvuB7dF5trCSReOAD1k/VFcneN5R9EOYqshZw1py9Xrk87Uav9r8r+tYCCgDmZKiJ/LQoZk4c50OQ0YvFNyKr00Z7bZJGy351CI9tAh6ujayQA+jom2Gcq6VfaCXNH6T3E0O+Rr29BPCq8j+GXKD5VYG7LYK4me2Jo3z7OPq2d2gZnuz1T2wAEOpfZ/e4oX8NYrwJz3Q3G3ktsyk6yoFGyNeS1YntW0IX6spZtGLW16sqqXOb4bz6Kn7fvXxOpFUSpkl2vgn6RSX57K1V17VMsEFYZ1q+b7Fw+9lSTrVqYLIlXosSVnN8+iFmzmH1C7gLl0z6xvEGxvaz/zvHaOdLov88S5e3p9OiiulIpyVPUFpmm7yzQov8KE6JS4wKXabtnelwy670h6VPK00IusdyKiYyJ9VXc8eM9q6HvRE0bbVC12LWT/WOUCmvgx31YrP3SKHEGXApBDlhdFWXXPS4WVhHI5/vpYJZbWrCw3wv5sR9RPgs14cZjj01DslITr58UP6jXSf7R8GyAC5e97ijTrSn+aU+k8bVHj3DGshwCwMZKSH/tnk7/jQ07eUsbGuEGbmrVm73yhkD763tPpUX+WQ3hva5QdQ/B+JJb6+WEbL7tVqXiPNETWYh7GYsuT9xnNLvGTrYX5yw3Fj/Bg2p6k8YUT2PhiwZ12/CatUoPFGvlr0CsdJIbbTbZADbicnHyCadxNho0bpgIo0Hqg8bHZXnsdtINEfRWyde12TXYpV/8HWAyJ9yoGQDSb4iP3XfBx1fbSsbmhTZ5JKitbdMa903IRyx/fwq914k5tyfgyecRQOVfsPXuKQfWZySIh6IpqQ2f8XSE8aryUWyJXhXXCz8/boWQmH04v60Vniatm7uMB2h1x3oIJa7yX5hlf0SHmu9HUK78IBzoAxbowwJO85rVqg/WDb4kgoiUC0t7FVIOIEfqtvxesWm6mWR06vPNHf5gp8t3qz5vXxuIuImTqfyLDIxGHC8ca8U8fi/WTRw+CnXgZFBbQYDYE9D3yjYK06GEoiP0D/1HOYtAFmSeXBNMJS61fFrijLK4EPx9B3DhmRZp+Q9SF9IBEieqoN2CEJuUEdWBKgyFpPf6mNbmHedZ75Tei++fOLgLqYMlkgTRVqquKT4QbscPfdGvYdC1yJcctt7EUyIUf1+2qZwAXjABC2hSVmEJFXBZ28A+ZnB2rB/l+PGkjCOeScbS8x/i7xWTsl3nRWydk1R4GCDpwIFQabYv+4ELGuj/o+QfiqIbuPN9KHv/ri18+APZMYVvRWydkw0FgHsnZLvOitk7Jd53ZIA+WNHa56XPtdSL6sMJLQ+SL4t/VBw+hoAhao5WzOawPzWdfd18sUFIZmS5IdbHmY1sR/LuS6FgxJ1qITrp5oDCGOpF9WGElofJGP4bc6K2Tslsbo04/FSjV64g1hRnBmoxh1sxobmqRBAo/Pwkx8NudFbJ2S1AAD+/7v5AAAAAABb+8jlye9ZWUnM22+hfB32xp39qlTrXXAcwTtJMcpDvhLuAbuqLDEVeLUmizekWPbAkoWY5aBNWjShqhYh90db1ntLZCodVs6z/PuF72QJZhp3wxlZfrMWLNVoYX4yG1VqxMZU7oBCdtRaVNnyLSX+RZAGY/So8zWGXlQ3ti4lx/RZfXcU7Areaegi441ScXYTalwIpy6b3on80jyNfkRrw74rdEsdFJZklFiGih0cybyYlzRGOQH7/oBqwK71nM+G0tov6KThjj1y9qzqMEmGRAGdzkNZ0pwqriiwCt+FU9MXg3MebYPjX6rSxoiu61pRQfw4Flvic0WpXko2/WYXKTRNacIribWAd/6Mxbxiz5gTuGPp3yzgAugbecAAKUc8njldEdgMhXp/gfUK4RqVY4nVtVueLylV3By3FPmrb3mgYry1IVzv0JwTz1ygXr5ou9ogrS43hQ1dUDvvwrrFvje8RDVVhZlQ1IB7Cjn+tzNKozY5z2/I4oaNNdee+vLPUZqbPQgM6O7U2sDF5JAgtVQt130LUQCAy6dLUHLMji5+I+DZC3kcgr+IXk5i7a2UVXQtAb8q3BOuXC+7tnfMTza0IvAfI7L08mN05w60RhAMKQPQ2Hu6qvuSwGwWXDk1TCOniLYbu3G2c02Z7K+KJr3oP6VAOWw4ZrpXxbJz30gENly1veTVAdQ+Y/GXOHaVGDQA6aTBXQTF/NrX2tlgxbv7dW0sf35k7ocrJD1GEB+DHHBZJLLDC1oJXIvNYuZyZZgZBVtGoj1LljytoXI+63AiCkrNMtkNaVqroM1eFCdA0cdSZeP2LzRj1VMGjoAAAMnKFMRDcuI4UKMsojkP5OWRjvJHU0w2RbYNr49ebzTlwB1Cp0TJE5IZV7q6Eng5b8BBllj4y96SJtx+JZ6Zznxi1td2BogHJMbRrwtjyEPWEfonjqkH+R2kyHUfeeCVnkyu3FgRp0NAPJVF7N7VTFrd/2vRxTF5RGXwC1MvHV5Qm9j8hSLienSuwJxetwoFyRUEVnIKmtgkXk+13iAAEFnKAXKD1K2cOeaDXua0izO6GwV2AQ0jJKUNJqtj5bPWf1RuwVt3adj/cah6IxKJnhV9r7ckw4Gh25eKNzJB1hrxvkarUJe7g4/7ldbchnUEc1tcoLNyy7UmRF0A0ULKuJSd6RkSkvveNwMosAWNgu+2VIe2xzDopgzo2IpS2cMtPoiIS9FgOJfOLTbAnM2jAxbs6uZBp2HT8jUFINwmnwWjfOY8m6feqj/JYJ027WlIZtruwrRAI2RdSKs5lOW1fILLdW1jF8tbZC1o3T2W1cPZ0K3IU97glocWfSX8WnLsd59kxyAu01DobLrnExkA3d/jIXEdC28Y3Z1Xdtla3Mu62eSUW6o3Pi48Lxmsz+PVSgv63ey0Vg1WatDW8PcE53ahrELcwdg4vSdz8aWg1CFo7XaAbRbLR8EAeNgtUWQ1/AvZMnT1uxmuzy3yviabf4AbZFKQsdpi6ZUl3Z7evA7jH5iITJfCO+5T340q/5V8rOHp4DfYAR1LwpuE4fi+bfKX7STE68ZrRr/LLHOB7UCZQ7MDU6cXj97JWeS7xNVUoLHhzNKWvay6kgHUu1YytmXLXE3n+Z2oX70GVbESQFjG0CeWSviPg2GTjE6EkthHblMMWQ2rkc4HutcD5jldsS744fC6rnP2ecPG2ND9gOewiuFRRcKjiBoxUm9hc0U5hs13BJYzVlkpss7wBItj52GXwvGs/N80zYHE1CQeywQP2RbxFEgbXrQDZ0c7XgvB5dPyH5dE8rEk4HU73ZFz1FOmNybnXDgzR03AUpKVF1XIFaiIL8y/9sxD5QtHPB8QKQ505sQz4BUdytB48ouGbagoOyt337Wvf2T8n7xk7jz4UjupRkq/82h/lAjxhYYgBS9LZUXDs660J+ZAMF5m47z4ALRH974Mt344wImajdEQFh1KHMQbqFpL4FxnuF7Wn3Nsk8qD8xHWV+t+X0JCVwZjZitoob5Sj1pz840vQwaGyCAG6c65pLA76BnvyZctHU98j1u/naKmbcXWdIWUUp+uVnxsK3wOLqYW+RK+o1tKRVzO+o9IXsH7JNuGWyq+E/I3r2wiXuWS0f2gtoZ9lt3KnS/9zPqU10KswqslQvONyafKCXiVRzZ8zBSNmaR0EzM4+R9/vEN72k+RaHOTpHkOFATsvv4J0+gRGH10FeVNB8TWnhyAZw78OTJzAuswog6kq30qh3klzKWUNtx9IIt43tjICnA2Owa7EPq4IkhJSV1FgMZDmA8GbW5fAToD1oq9Cv4tS5RXQXXU9L59LxLw8iKNiCFQtzQslsWEk9qfFaB0PTrVoNSjFyP5Z8iV+lup3XFNQdocDy6HYnA9W2MEUdmhI93p2vPD+iIuz057EAlxMx/+D1IZzc3F4pop9IuoHG0XcocOxG2qrJD9ZXiDfWjzj5P9Uc8t3KwehTgHsu7k60/rIk7msvJXOLqWp9f1abwumS/pcZZKPC4j49Ye+cLNZ+7dTs1LucArMVhNI4sFs7PTkxVh/8cyglAt3oBolZejNuci+MzEA6xuxBbQ93w4FF1eOZ9QHnxlbIJflFnDERULSqyqXNvRkBdmFS25v5JZPPrq56d8z5605O8p6P7ALqig7UuPyLX2Vw/A/wUzsbWbfgv+SPq4RCs3+9uSP1Gq6StYTZ+M3n9pV7WpuMraNSDi2D7DNnYFFESh41o37aa0V5+HcR8S6iES+3PMcKFXp/vrbp3ghOzeO4lkWG+XEpx0oLaQBuZN3GnR1t/8wAN+rw3/M/3Kt3Q4rfL3xR5H6kexGJ8MvsI8sP7huv1/Bk2fVx8Zo2j4wx+hm8+ib9stoGkgvykfkhzYVgTtGUeNWDxzS55C4DTPqg8g7P91vesjEwmo196SKE/OXiYqkJ/GJE1qCEaUHXgNSrtk6nDaHRIaS6v9olhKld9TkEY8b/jGBZg5UX8ARj5ItNmf0uDm4pDqNsktMiajK3hfShPBTlNv6YRadpJqyMykoNPUz3BflzczBvyw1lT9cGk2OhYH3cBZ3mJaNPujtbaSOcgYpb2z4KuzwMIkkT4X35Mjmu7AenyKf5m4kL3MmeAc8ADT5ru9N7Rd5Cv5iNnmulgCaH5fCwYwd1igi59U5IZt8IIlAAAPz7320O2eqROyu46yCqpgx1yCzsY2iAt6mCS6O8pGHY3hjHXi48a6lo/Nk48CF3461hYMCJFFI+O8Pg/1yLfrKDZR+fbOmDbuDN98em0fo87aCgs2uEjWkynrayxJwRtwsOXnrtvcGb344i4YCOeQH7+Z8Qcj53YcxirP/01m1wIl9u/wb7kxoDilq4SMOmhB2o9vH9ARZfWDWdtONwjx+CIgjcOMMuA3IHye0249dwRFrmIgWhmweTrR8+AeoYsBaUR6D+fs2RFU4TCZJhuylQX1xFp6+jbSiiiKzijmA+hLq/1glgAlgNyNKJs9bfJf7glodJXV3ZZXETEnsUGdAPs2A+ps32M01Oo3mlKB3xqiOiRq7UXAvZ4BD1sQVWtDoYyTAj/plS/WSSfIpT2UpKBPnuXxvojqLEfFfzfoYp7lcDTUt0YFGZxWwLzZ+1gJv2gh8C86LBgeY+hK/dE8ovdtkSjJDYFgoWHRyxy4sS077Ql2MeyvWo922eqiSXAVXtTYR3kfTZV1fJem9SB9sJT06ZOq64AbpVNHLyUE8GvKm4EETVzjIsiMXTVL9G4UNdcYX2KiOi2+Xq3iNZhMDnj34ignXxBPtLEmaVyJJz5eh2JWAaEapewYVN5MVO/ovNiCWgRjwNMFHpHQTryL/5SUv06eMvEpv1QSSg3qXGwU+qcgv0v9MtFvI9Tcv9NHA72H1XDLgtFP117K4c6wjKZXwtHzY0P/PA+Vf8/n18MmGUR8XMOPOaLO2sV0/yBbui+RjrnvLmaCBDGACK/vXhCCNDLGenhJ2a0MkL3MvEwOz1M8ZBJX5w52wFTlqo/7fdxZynyWWs+YttLjwOuhW44SiC329VOtLKbvLAF3qkDU5AF9uHeq4SdQ9ybYhPJpLAVD4AAAAPKOK89+EZRjJ/xRQ/evuIsVxUNQzorn4QT87Wf8JZ6kF5Lwk4RudqG4h9E9xENTDX7TLhrB7Y5NsjjIaAABOYDidWx9/K48QGbWHOun+2+KLiY7NWEpxsatuHa0stsFuwV4Loc3LMnGNnjJWSWHTol8AHgYEKKGQvjMZWWeoNEbtjR3BPFTlnUD9/NokJS73BD1hXF5DE2xv03sei9vrHiXf4zJcsFpugIOlZNosYg6M1udQnx7TCCEYcbk1kdsd3TsyK5ncI0MV2dejNbINvBOMuiS0IoFMNZDrmSO4qrnBfjezZtr1ofndN0CHjtal5NkJYAP4ip15NJam7Kc16heLqMCyTyzPF6k7CCE5DOmGaNYDhnCQYleH9g0dHv/OSLE+TYgqYsVdDSgHil7Z9ISmESjIVJb+8+lIXPYCD/FOVzXyIh87CHKf7pFI/IYb/Yi/bOAUIF+LkNmUgLUEf2FPd2gTQAcBpuYH5/ccGs47hRkpcOeUomiCoNdOax9y09jQOXFckcf7aoOc/XrirI4E8KpwwvXUnwADsBbvpQ+IEpOkByW5wHgrOLiB4em+pc3IfKvNNHtZWAMCHHXFhUgB+/UV/RADveTSpt3N8grXyoehXipVO6bEhYRZjRwjdyGGuGY3MGUriASM0Eo9oybNCMmHqaSR1pWxch7YnWs4dfsrF2ZZcvFMGuOOuUn94f45yep0xxYfiP0XWoeoZ+U6uJNzVPQwb2AgTjOWnroaVoXOePzWT5nHMXoaPBT0UZ/cKWBPbOLSrfh3o+aCDAcsvEFH7N9lW1tz+mPyTFW955SGCnwsNdqMktJ32Gv9sSiyA7yqj6hGVTNElWHSw7FxpQDkQzbdYC5R9dB1qyXjSVnRuBfq1uygK38BHiWlAoNdd2CjcU2oWeIQULAk+10T/f62+VzfV2uZlDyhD3XdXrK3g7kHHbH3L+Vm8xeo14wb8k4Thx76f1AxzR0jv69Lmj7soG5yOa2ctiMnRe+Jd5mJg8QkzkyP4agyaYdN3gANlDtLVsZW7iM1NLRqLmfXzGOMK69CatnyImvumEpJ3Px6TGqBWS8NR3X9ifbTQp7yDUk6JVRNrzWsl4iqSp+FEfZtwjiw0stXOijb9KOrIqMpvQlK0G7QecCGFzj/NpGkiNRB1EzzX/+QpMTH3IM+9P9FRlf/ZrKahpqNs0HtF81tOEnmlJWNpSgsqmFfTfkcPp/ycrmvZ73kGohZKJsKL8BF1lE8DS/iMuruNOhjUFTgvLjTmCFQbeu9Dw5uGD+oMrr79VZrad/QUxAVntQ0dgqv4H69+xWt0EcJwzWh29RDz3h1ZVLJgXHkgJ4XM+Da3WZMgYxuVmvJyGiCbka5bySnk3i3G1Vr5mKi6EWQ6Q1RWU4dcHjED23doVZMDCG67lRVY9GCUAbbyx3pGrTgfMNGBvlMTgL2Jgs7DDemYPk8O+WI6P2uzJFoF4NJOvnR/5lEDjsV1z/aN8MZHjqIvMpal7dNwBml+8lK9GM9VawECjz3Z4kX3jttJ/yuyWmn5/X84Q5/zT8WM0VNKyFP96M8LFf+6icfrrrnmnkEk4aerBW5T4zNEq5JMdw1ESL7KcLN0ENSGP8CE8/yHLmrvEHgL73KpX0TCxS+2hA4XCXHzFceTSkLLZdcl3F5CGmv3aoGFWj37QmM3JXAtm1Yho5wfhSPoXCmDMR3neK9+P8wkBHEGGYAnVHFDtEOuZ4fNLnTzWOU5Q3jFxc9QLB0rXHw5KkywcneqXdPH+fLuT1ZwbeqBWwmwEWgB8mOhoz6cehGn05hVx6dKDWV3g+JOffWU9UBd3uzLcZLgP3IDC/ScwEA/KwtV10q+5Ae9GXVTShPMmdf5F6G4opYvM9ySLurh3vQfWPaouYtVkegxmAinQP4phknqMlqtiDhuhxp26vMKy9V72R+Q0b8eVa7HQ2r4atpjnJGwDNMog+fXQhL/0InNdksGkXUZOi0EV6UsuXxR6AAOG3uQQjhQ3ezrwIn/qxlH7XwQKOK31XxURfi+O/Vio4rjEWJY9mUgzESxxgT7dy5leHlYNBB17q255jOEGGZSIdWEgLOn0bamAekNITwUXfKLq3CJjKWMR0hRjqfQ3Wx1vz5ZPQPrEQeDTg4TrAhG4QkuLQoeStflGrF/J7rL3WvmhXZa3vfsByjAyeAgcTK0ymRqINdCGx35dA2mTY+sy6R6DlXgZ5O63XQRthHjXtQ6zqZA9QyCdF9edasMQiY1GmBgDe8/58j3IRE96cfNFXr75ILsQizgdhjNheL4NRs1yFxzILiQwkYql+3/F6/nzDpWse0V+y1BRlOxMbUQZNXUjPYqrW3wmrtzKNmsULLngXLLi/d3lfkedkmcOD0w6R+a0iCNcqVo/21LrYj7LD/VZUldg6+bxhXm3mQSDWeRV8ZiBYrkAZ2FoPhlDt0eCkVA6LLb5/AZP6/qsxkHe3Fbj2XA+4S5bWhvzUrBXvJSiIZLLucPUapgX0wTBLwdFk0uPdHVkwmRzVO3ILqlBRtS+U0cl3xtV87oRh8/ybjrfPxf+hCMwLzKT8VXetxuoUKLb//yDU7OzIq6MlQkZo8efyPqPYJJfPAyUGQ9fezYYgWmZhQHpM6jHMZGANG3X8HQUwcXiLNx2cWblO/tI8Y8nVdt6wEE/YTrINR3GLTvWwwOqlJ0fCrz/c3KW20EVssPj+qkxrvSVhlTpi6JqNg9BgUGS9zouNI76/F3O8FvEwEN738J/paE5QpUwhOYVsUK5U4N3Fu48596GiTbF2WbBcw+FarLyewRQINamMMJRZzmDdJqbUhif9ZF4Eao7qIpliEYlmtVuFnuEPsrZtpPaUFDYHZ6Uh/K3YBm/SyzBIh8AQD+P3cRArnwyyljbvtlpA1DqyCB5nvY4ccfj95Xo42Vc+LVYr2hLx1hsUkJ3/g/Cut21Jp5BSdGTDmAzOPkDU/iylnLACpgtbwJl9FaIl7ac8tywBMfuYEVEdDpetClCTLm1eaVmqg76HkqGX1jHM+mj93DmXXkceMEWbpEuh7gW1kYDn3OmMzcMyI+GndZq1lxFkX+PgBgbD0iwXpaqZ07vZo9b40cISPYH2xcXS76NBKmRpdvjh/25M0IFdW08UjcN1m6SqtDoK57ExPPuLUQ1QPA4LfGYQX5D8fg3F5LMSsVG9PZd2pjpkUqocaf4OCoU/rfV4XCgXf60P0IWZTT5pZhNPpZHEyJ7BHu0QAVQrA/PaLUz0z5ChoZFp7VFFP0Qb17c4ZTE8vKr5RjmOsq5CTGaHP4By62zmHiW9vK7sW0os2NwXljKLa7diuDLrC5y8Dt306L+4TDfijfpJ9msumV/0jN16QAxd2x68I13wICMNw2ch/jierqLwhJSZ4fb1qiSfkPBQIapl0L+Hz+IR5oDG6dfNVr/7qJKh2tN9A4mVfllI4OLe0C5Vu9JhG1gCL/az/35bifgK0aq5GUurcRDrCP6/JSaEFx8/WRVNUgDjqkvgEzqPOILwYVG967FQSl8xDDs5vq1z/HAtymM/8K7uWsYFb2bfVKyxj08u5lPbO1Qet/y2Czem3nxgW6dmsD+MO4QRIW2Y/JOlVB9ELQ58RJl7tyVKvtDEMTYhfTWLdY1F5zk4VHSgiWi8eFN2tplj/zit894+9GZ87ecrB9svhGoy4zFwrxDmZWabh4DADQgoyFliLvr6deuBioOM+vEorK/d+7mL0sjQPcTtU/ZgtyXsuOMaaL9HzS/BPFZfuSthJWFLGLswq6J6a162O9D9R8DG5uieY2zDJ0GCOofbVtCa90pOIOwQoC43nc2Pe6z+OWmZnKLfvKuIGVZAoRMnzzWpcn75OJ14yYCQZyFX5hA6KhJH/n0JyZU/XsYrf33KFer8RUAo/bQyktP+5gEDiFIwLxrUIvt5UpCg3YVkf3S/od0mXzBWhroFCOrL0e6t3xqPs25UOPTfsrDw8XYxqYZfcRdhwXgc0XgWQuidfF0MVAbP7iOttRzFlXAWOsvo3vR1G6QIijxFT3i9ND50RNUGDE5U4EPIOd3xCpOVY9z0f69t4Cn+txFN4608r3UX5zBZUJ34VYhBZ5nwKOZcczdswMsVK6jYtlHjOXmfpfBim37I56PqgwqIIeVXWZzpCkPyqAXMAjXsK1mJi0vK2GvdOuNM6s39Y1dO2o1UxGWojDqp6K/uq1HkBoGYtvcRT8tCzLrJhlQjM2S9dw3uP3v1Gg1/qQryNEiNART5ibe0hzdf9JGyZUlmV/QQqzPoJeCAUdHzdTquEFwPtApUbT+WAY8+Mt9L/oKf1bUk/ful604l7Get/ca8GHOcJUbp07cZM684Y0adMgwBumjNo63XYalK4uKIyt8RqL/RoLEvogdpxM1OHgUn5Gt1Z3FUKGNxfTUmVc5nPizYTbAcEUKyW0flgcHZH9ph4QKqMnpgtOs+BcZzwRs9tkGsmY0oyk78gFJni6UapiCSP4pnnEJkhwOpiSfIoG7TpY0pWNg8M02tt+g8Ly4IfwH0Du7Xt+QRyiY92IGsa2s1qLyYtxAs78Myi1tBdd0gSzjXvaNhDOUiTCZcYbp2PL3ozEANz4wwZk5jwbDy+0+2nZ5EDeZhmMm2PDOY4UhwymOEKNyER30UgILTFujuEav4mUuilVIXk1O8T/4Pp9RBCQ/hjtycXaaMteRNRzVKaTMzqECTBUW0+YOzpIaNYPmxa8qmJzNHD6rB1+AeOcZtiE/Zxe21Gd3pZWR+l52XVxSCPKRv6Jc5dkbaYQkU50zpFuHMkdMEP7F5XzRnIAXZuWXrrJW9bvrE/itZd0IVN/GHzRvFVCdFzpHK5RgmTLc/K8KKSxt/z1LpySVtZHJTf103SwoNynGeLbz7pOgjwWfEQXG6qZitbeiJJgfPp8oHOJbylCbgXErq8fJnOiJUNqpfzFyVa500AO4VRDaCos8GxzzV0KHUnAnVtpu/r6Ityuv3ZHcwji41+Y3TiP9mM8er4oRJxiWgQK6MJNIFzBut7IbUuFdj1lfy2Vj3WFd3O8AISnL+IpEBkykBmXacQmCvAJLlG+K/IGmCLzQgZzWNUWitsKTmN/vxlZpYJZerxU1UhlvI+LvtjBVxoSWwZw6N38kMP/M4ioTX3vlbQMgqv1AR8yHlTUq8z6GrF+xjluU1vhG/Ob1FuNP60yWmJlP7YL5BBYzWmipS3enH4DTLXqJdQ6mSDSJkEteHBUl72LH9eNR5ehxIzewzk9Mkb7bFQg77UaJiB08mz5eazMFIZpLSaCx092M/wiT/c/0zrf+LmuCAIp0cy5NKFe9EUbLRhglf76qUG2Chlxto/obu7hhyKotQ/qPo4qLueCRAeXk1yy+LoyigMV/hGjbVh8G1PN0Hr5qm+DkV6Oa3+9IS6Yp5DzetH6z6GeEygZOLGrige7NmXNvGx9vjZ8d4i88/DECaBzq9KviirKyyLJdI1oH+y21RBstvxxRgDs6I76hITCi5Sl/MCDiU88uqjT7mGnyQrDy8ZtiAqH32tNOlN7CNPc+kgXmUaZBVBpjxRK5eEKEalvocKF0gS6BfrOSC+eaRcvvC7ljCN2/5syLlX/MQ7PNqGWc/yU235aB8yTmHSPHUEgNbhZPRm0j/vFSseYNiD6iXVJhJ9CP4Kuv30a+wCVnJ9reHyFXPsB2jLh///LwhMn7WATQEZEMoLLLvUDyTv6RubHRN4vrNUmSJt926NchuvmWgyAPAR2H4KLg54X1y6R0A88HW1PEUf42R0oJ/tXHyvJsDiLrzMm3YjY0YqYhPTrYNw03+RRYiWmE0j3KRBvhVBGx+b0njtuwCfnyZTG9fKnm+E8Yknj/4Syy/c3wcNxzd/pxF2V0NbvdnQy+vZatMR/lxlCmpM7+PY2zpwS9iJSLcy0eYwxym4cyrylBn2CVHFuwv86JGbYMfyfO2SzF5wJn829/dE6a0yH3M47R9WLH67fdcwriHixH3VWJFhvYEq/JuUMhAem6AVLEnEk9oX/fAwYc2zymkmNsljrrCJl73TrKNOAxGUJ9MjFncHeb9OfFCtZVOEiLQH60+BG0Rt4cEWA3rZytGgxNQcqBTx7EbFOUEL/XsKodt384X2PaRcplKfREJo4KSrDbZ/KriDG+//kJr2EgZy+1HtJh9liVE2P6NSzQxBOL8TMYZbDmpmZIpxwcz5v31bZz9Q+Lcy5Uwx7J20DWhtAE0QNnaoJaB0Ri5rqyxQvGNQ3IU5EtWZlVEuH6sCxKszj9w5MNxRSTigML0ZXAgjCfNnEQvMXgoMmCAPhgze0E2HA+axwvhePkBCc2R2UMgsoy+WrNZe1hbVUfjva0dezIwHD4KJlT0L0qRKgA9PHNZGFVXWLyk3RPv57YygRYPS5bMNB+9T7FXIO4w2jK/mJvdR+Vnf7CUBqACux1EyMVZuspjYvbaOZZx0PpV3iJ2qGmvTBK+u7Jp8wDpeQPW9uOPEk+gKH1DcABuOuU1czt20GrL5CQDT0ycmy8WBhxrBhEllXPzz/8kmtRUszLWchJ7ZSrt3AQw7QUesHzML8LBnRNDtuiNGhbRJ5vdk8rCeSoaYcRmMsZQtRugXEyb+MZeHBO7Bf8SxtRQfco6ELahLKGfbl1tHh06bnXjV+boVNKkH/V7dYGMx3+XMw2/2wh6ryrbjoK+cCjaIpbgVp+Sr15AJeDDEBJcCQaKDQicb/5UvZ6ZmTzVUMSP+Z3AWOJxsWBEYMocGC61PXFM5+rUWPrcDQZ9z6jCYCs9bFEMBkUz07tOk1ACu8k1/A/lgYgS/AVOlpMKmYcSXDlLp5NRVf1H9rSKMqubcAt3qkQBgJ3pzBMba8WBrrXKFm8m2B3H1F4zv+YtFGdRj7uamFMlgNNjVHm34ohLp/sw6jdZb/KVUiP4KKU1l5DUBxHlWZr6lW2n4iKPA0CcpXvP5GyhCvYWNBo5g674mIV2O69i3YOZqaMGkq2hvNhwYEcmfgSmi3ttmshJPTqj2u8qxyo5ht/TYPJ8wCQLkbAojfkIenaL0Fiqhf5V9vO5QYFUu+jsAK9yOLfbiAslj2OGbkAqsd9ppvZpVEApTvLwIz/JRi8BbAO1nw9La2syC1G49AhAYZMUIsWqRa/A15XXepm+O4UPNTOaMvm5hB0A0a/5CEIhsbNHKIKVIxyVk9TxoSbU1q3B23nirI55WCVcY1RUTJEMQTzfOvmRXrSnGxuTU/rn4j5Qp3YHDQ1UcZBnd69zysPMoU8ci3bMFJCD7/bTGIfggtklssOHg9O2dGa61pLWMDBm39GnDhxXQROVamZzwstsdirlb+isujYR2tdYAHUqUBsr1Tv60c90cobvI1zCMRJHQ8D7mffbztwpEM1U03iIwBuLo35vD4M65fFLoFhdCdITAOUxeu47+RJY6sEekwCBD47QgxEb35GCLQoZZkllu8aYiMnqwgy0YkAR+QOM+7rj5u7DKiB8ZFLp8UOou2KAmK1F20CvocjpVQP8bwCKvGLWovS2/deKfcJiDkkLh1fnLvbOaGhAOhbuWEpgHd5rO1bmPCXB6sXcjE1pZkTovQxGk1+gZ38JtIXQI2ps41NG2/W370CbhDKf1SKy9XwSzd29MfcmRlWbKPNTge3Fw8jGD04yF0vPEhXxQ2DNYR8nmdWcBx6E+lafmPh8Q8KGbVR0G9WRl3mwM7QtVmXOFPbZApNVAU6zvEQI2UzuirelRaA76hiS3TUzTyj+5yVzAIRKO8wJZt+wxS/FgjQonf0dNkhjJpEldUFfJoxXYk1YVwuFBwx4tw/MKQrpeZ4s1WAHQbIoPAC/k41Jb5D/dUyzUfMvLAwZ9ciT+I6lJA157Mc8bxS8CJ16WhoaJZUjVLynorNsE83eS9PUXIb13PnfJDwB4wRLTeL8T18chgX9vQeDRHb6d1NgyudXYJuoGnyMwHkzzXLWeluHz7KtKhGcxq3F+Lt0EDyYnjhZNbvoVUh5iR6ENSxX7iw8SqboLHQSl+VfmKGqhyh49fn69h5zl37+Ccg4K9xEJejAUr4PdAqaEkAIMcRLE4SzF1wWmYNa4UNgSpmJ5bNBLPacOwZAzrXp5mRTlo3g/ESW5Mi2571C46XU3qjMoZKFnkcyqdmbgAFFTjVhftShDxcsIF0jiuayTQHRpsmzw3O7PjnXHPtDTc7BK2COCCFcQMWIPMNb3VBsXBdwjHzQkisuMOc5fvGdkp3bOdGe4G2ajwlx+AGqtCo9p5mhGWZNTkqUAFK8b8qfJvyadg8BB4V0kDgWSBtwj5YTw69Kv90l1eBQQzgnH9lubdFGCgSvG0RShijpE/QxAzbSZ5gnVdd0r9QE1cOyf+70QFeju3GafoDH9JqZ+MT8jh1Qd3qNm+nCEKi8d3/PVh0gSVtczw+q4CQsJvyL5IkkyAPPPrTCaRQrBPQFYTQ/5yrV1l6bzEINogR3WGq1tMb3dIuXzLlhAV5I6m3y30+1SIX+BBFGm5kTt7NHrgEERGRB1bN67KTbYMs5p1wobto0oV53zq8p6Ns43TQmb/eqEYYm3Y/d4RNi31/n/l7uikp7xy9Ts1C6l5LeTnXUHQJMTFngs2cOjDCk3Ve8bS9t4/iDEX284TiugFbO6E7p4IWo1ndh2SLbkdlGf2eqk3UhT5wtfoY8qoB4L9Cs6qVD9jU7C1yS8esVLVVfWplbu+KH+PSXKRNjqDWIdQ6JvoX2sbBW9v5/f/lhNy1Vh95qN2QbmA2aCIMf1Vdic3th+Ubt4Z0Bz4gghO989HIRoRZLGh9Vj/B8RH/7+WQXMXvaQFh+Qw6hAkJZtcZAFcXxTmLAIlKwWVs+TCWirPPiIYa6+dri95ElU6ZtNuW1oGbtFaguKnmo1swegChw4DzEKBS899Hn56NAQPACFvUAIoXTr31PrtKVsNS9Xc9Z+CX8KbjCGjKKOHqeCp4FrSsKetxLQRF5JvO46Kb4Wfex00rvqiq7NmtcHAbL3p5WhNXyX/uY76JGPn9aN0RSQ23ATbAg2KMVUBk5nv/LUt76wbx/5GK8l2ubd3+q4LPv/SN4/+WSGVKR1p+KCx20zlAxCfzhmX8VwvO0cG1/wBMXvfdwJYp+Fw1TBGAUV7kwunP+cT7hk4ab8NiS/Ri6M2GcdoMfI6HQFcNtEGISmcBBFhuen6FG1NAsDBOsHHsBMfqh7EXFN/9/yu+wq/B/1a0RwD/GVXoAAABYEBpYy94pPfTR2746Kr1j4xYeYQl8HYaUs/nD22qbX+WA9+bGiqy2b/Pk37ubBQlKhJrUKb3dYYVYi3gL45Fo26Gon8eAMzTMsacjllIcanNREL3hCHLBBx3kmVkrzu0tNsE13aYafNsk1Wc+u46oM9iD9RljEDG7SVVs+331c6HlBZ8Ks8VZLj7BtVMKpDHUPV2SBaFDac/oZHTj2ivqw53ikFWjDhKDg+cr+uz2xkyEa1r4ZJXPiwn7Hh+Piiu/LFBcIXzRMXPUBMlbFNFE6y7PQK4N5neQCf+A6yJp6o1J92Eq96Cc6ybyf+xhvUrTMkNH5E2GH4BVbED+yH4p/HqPFlWpFG31UUUk3Xe8dXdS+sNLgpIMyCvqdIPUzZySq1IuR+61BFZ21g8eEciEaloCr1t4H9cy8jeJ7gsgJCFxYn0+tosjCcF0lqk+gvIeLfVXjnmEiVk6jSqXe4Q2Yji+KQEZfT5MYR3JzqlTdjIP4B5joM4UNVuVdwJ+cLn9QY8Ra1kItaqT7ccYQcaMPydT7YHbU4IaNQiBsMd/37PpyK1SnrOZ1BBVjQfxpHD38xClJEMXic86xcnbvrP4WjzvGJx7g7i6W19/H7JdPmdqJq3y1ADI2Xw+tyJWM9x4Iijf2nBR3+Jnn0YhfmevS9B4ceKgn9jeebkj9Cb49qTwKh2TH4CRBjv0s4qYp1EhyHKVJz55qdDOfYbdc7OGjfgIqkajUAQ2viHWK/AvoFGKbqckyQg8wZffJndR57Waq6zkAOj1AmqblZtkiEr61TYx3BJkdMKieB7o44SndsEMqZMslLChVk1s1sXCgbP97rMkia9nkZBHCtg95Ux9W/t77vc0lGGO6WzvU60Y0xad+Zr4jVJ8GHY8hx5f7y+RUhBoNXW3fJXNtADFMNrq3U8DMEnJnJ/oKY1S+KEg8oHIOgQTjJ/RimdY8CcaygcIRQ5IcIilW1J26cATNbipPqO+yzSmO7Ut12CHSweYLVgrrM6QqAIfT8f31uAf0pC8h36KHo5mkLeYH8wezhf2fuiYaAjfgzJW/AUcfG8e/1DNEVom+q1ln//PCpQ/66OxaILY8AjFoR0L8Rs0tlCHFqsMh3Q9Fk/hUlrVfQoo9uP9oqg4lz5GFnTff6K8S27ghX0quffCkYTWy8kXLbYAvr4087L66IfYlguT3f/1TV+u62plpPjGmo+Tbjvf25x4UhQoBHa/qb9d/CwLPRgNeSiLw4m1ycXSGRiN1c/0gIWc61U83hqq3TmdJlVn4Z9N950spIifIdUXSIIBTnvl0DDNmGsIzUTi2FSQt0wu+0+jzeckkSSjFzutpVf0YGEGK52+3YfAHvaDafM10lhvJP9eNcCuICCjjjywwFcKQrJ/JMeB1Otbcu5IzOJl9sTts9d+qfSy2UCimcjWT62mK6mO3zFDDHaFSUmnabklGywb0/+PkHk5K2+tKes7XhCvqO/aNvrDNyZ4wBih7YK6eYlIeAtSSdKASN7pO9JSOOCHu5sVM6WI+VlYJW5joK7kZEyMxHtBOZyfALHT/84pdgHh3gWdzXIoVbjxL3tn2MyT86sRtDzBuGBiHTw4lwWlp0pvgPO2Kfbhc21cB2eEg+irGQjtqEyspayoUSPXf6Hwv03z7JkadguygqM97mP1wir96CRFhfdFAIJRpK+GBNBB9FEXAoCcwo8PJNtoL8T6+S2mbPSVJftHoVmZYvhUGLs+sk9tLFt6ypxIzFkse4pkDDHjoIr16nTcIXuzvCOoRFdDQ0wWmDGlnukc8npe6UA0dax2EhzWBZGDikQx4gz21xp5Iwbb2UJApgBvmz2EkUN20E1peVPeW1p9M3tkCGEBxD8drXRc1SIRKf0PFOa2Gr29HMODqgfS8sndd+v4YyUWODbpZ5oPkJJ2JUJYrESYcxCFOAUYtIGYRqx/ILj2+OD5HOLkKzjKvTv3Eh5qgl1SRS4C25oJRmdVeJqMMUIB39M4jr9zCcqa1BYKcGunMhAjB0cxjtxX0YQqUPenO2OpwDlHF3iTNvnekBpnmLpAhd/TU+7mW3TNUqLePaao52OOr8t6j4PzoU4SVEJ6Sw7ENItl/o1IQYyiDA+p9A1j2MI3xJmlrxyBA513mEIiGWZmIVN/XFKgIdDisqu18yT0o5tdQaPJHEWKmzLREIJ/nDnMghrl5kzRUE5dBuKke8EC6l+zPrBvoXt2Z222bcusWEteNTaNu9L9v9fc4yp4Mv5wpCYdfzssMGBMo47z/BhlNt+LfkstRg0xPea8WxvoOmToe9oqld5xwWNDo59Dhu29+O/WN85gI4OHiCj0jhIX53JhWJm2Z7Dvwkm1BcvQeJyjGZnV+M055e/h6PFkldTWr6ZrQLgr7igcbQflp4tq5ZBr9jwH1JDBWYIHRZcUrPFRBcAxOoC2PQREBc7DcEYAgY38c92+nlEIrgvcuRnhIMH3X1ilheHGbzL0Oo2VX/7ReQVIH+UbZS9Kr9hGf916d1Ms1+H3pjeLoF13c566fd3vIq7M2m+VDXyjYbvXE2sbz0Vhsq4dqC9Mqyxj8kUA6p0nnc9WhiwCqBIVBRXeKwXgt0RFpIs3Rp224k7aiXsRHDyEI85EMi6iDjn7MIw9Za66lxj+yrpI13L2qKLf41bGKC9KvDed6nCiF6yiU0NblxBnevJ4MGnorPJoQnzVwvf6o3g/prHzMsZIvmPh3mJKgtlafKhbagNPN9lNoFajPD4NAbp8cwseoxuDMxHTgE1X6EMUqqkUNzpmcHRV3Ekb9WCVjFEkcycOv7J2cTumpC4fB0uIWAsOZB7DGbJrfK3GC2DGQwxmIx2X3Ak+TYpMWnogG+0n1dV1XZ3cNmh49tmyh15vncVVfcNYmqC1aOlsb89yEWlNwjWcRXNpCCvAOhl/IhGvzEbzn8gMPKFl01xWEWW3ZM+2hMbYJD9e5E29w5THzTUm/6+/xv/uQ8blw1KgOdup5rCJr3LDib5fyi9RIwvR7zy1VTIcdb5yGtmF82ACec2PTkoAC7ru7QJBUsEtBS4HM94c2u5CG/wmR65or0aa71W0/eYESlNEl3FiVGkxpISn9w4mhuozO1kSVqxZQCMReCus5rEKI/ZWodoEQ4bYcNxQfhFU1QBwgK/HTyp3YsqKfthqUid0+wcKhMMo0E8C5eaXOP37m6+lydTmD8NFByWUeAxUzlAGJB2MJH1ZRo/gSeNGMXAB/LqzZGLuv5eOkjuAFO1w9H5IzPwaasAHvAEUF0rfxEpK10slbspDq1bvPyhArfwIPoGiwTAzk7huV3gJM9r+qH05vn4z1yA2yf47Q0D3YQfPsMb3Y1ETC6waQLoM0DMBgsBQzt/3cRHarmYq5s2HFDmU3olXEXa1QF6xxe57acL71yjJNJm721WsVdn4BS+KwSGBA5ptG2xZ4n2zSGnbtvQaAxD+bG9+8/lAtjbUZhWZrk8BWKMxGIqpJSj/SW+AX2YQrjGhpNqc+8CISBZhqDELCQJOwMJUZxv4XW+bTZPvt+GhzIr+15FZM5XE9LgbQowR883ZN7OOhSlKnYBHuj+y5RGnPnmVwD/WXZEGIItcSjiuJyejfJba2FYYF3RpToDD2mDD2U9mbPVa7YnWYzeSxTIUOBONKOQ0xVD9OOhMLLZ3aa6tCwsjhs2PUux9Zze5PsKmt+0V8T1UOtylmAPrupA26jiksKR+OLnvTElSDqj++ugIBbmKnSIr6C2Nf+KPKOrrHGqH3SW2igaEBOwfcdGMoYttsNmew9yUYv7TjwrkVUVNULw2rGftsOsOQ82tTp5cLo1iAK6eTS9M+HifolkXCFbYzMwOsTV2yirOVpQsXTg4dCBWKsZg5VLyDyMaP8AAN+VdxsEjBsKqOHuMdwccNmYKTPcL2ibIVGNF4uRbSZR4TOfoSJzsiql/bsvu8lhZj1ecbfihHCa9kCKoDa9sAMFeNr7DhB9VOfPLc1UJZBNbmpQMrZuinuqGwrDPNRnrrgID6qodCUB5Z8FsJud2wKDmLNu097NsDg1r8tCWn59ab6oZgs7qcNM1ATEklh+27slxtWOYrOqX2Qs0jRc5sy3VhBjrEUO7Cq1ItbW7Thd8JzBV+yLT8KVDbGXfhP6aKLHJnkj36eqiQ9iASXDOkskvaQwXXAt3GrjlPRSfx/K0Azy6qWFeODSxH452TkgQPJxEbUeFpuiggsbBW9FFIS4l/dwNqD2nmCZTEO2XKLq7fJ2RCjkSV+aOOYcUAOWAHoSoFpOBdCc+3veLWmd6TIhDZXOKMoKg5z/b+WPIRUM2DXtB1w5QmMeTvLkT7RfKSRD4xrqvaLLOImigFTxZ4yQhUeWSakQOv34Ij3sOuWZggvluSAMrEWSSTrcj9datiRmcoH2lqOTs6SodC6C+oYsE+wd1hOpiVdBHbGysDx3CSeedd9nMi7RFAMxRofiifkX9aewdV7YAJJvlzDKOrGAIKuR/UumI3f5lXperrjyoxzsJXZQcDmCQd9lIY+VyAloqh7+QLBt4s79lp3gGctY/PyUMVtQFcic+/dQVLOazmw9aLZ1o8SYP9CY6DPIpEWIBuIuGzpXyuStoe/nzn/teOuI8I2vhfa9hLGpYShJPx6DUjr0Ct6X806LfEpDrIjC2U+9tIg17T+fYD+w3kNS8uUkZCSCZr5VnFlkP0wEQQKAQ7dVMzfd3zKcwrbuFa3YWLUjNQ8Qri3I380HDMk7+lJYthb1WvutwdtKd9BmqxyQLIZBuwknAb/vDPw5RvNDH1S0KUQwmEWzzMnKEzQWNp3236j5UfkvpDnKi+SjH//JRIlqxFnU5YSw9fxRimYfI9DQq8LgKpaMoXU2OPS9KYyKGNs5PTyI/y+pLRh0RTxK1hFOQgz5YnVud54LEXZsGfgdG7xl++NeWjhz+WPnge7RJEO4Pu/9WIGCmGFPWBXyYcpm53xXOsy7Ch8OPQzKPPTZNrsSDRTq8GQEyr9yDqWQQpsaEDBnIMLKDBnNLuKvWk4ttdUG+FmeBQowVFHO30s1XgCDpdmv3MoEY0PnugNyJNyBamgqezL5f3lnYhxC/WkOwYZEjTb0ocAZnz0L+n8agB9NCedcHrm7OR8LCZLpm3lGY2YqUclXNWbb5W+J1W3X6Ya15TTXeHwm56qon1h3Jnhza2/cV6d2ZI2AxafdqI9rfyoTuQPvkE5MIKRTlOePo1IuGYV+2QKGudnywhnW7l61vAkWxw7TbNzNArQLMq1t6LHzFygdrdkBrQ1kgMUiyc3/9j90/M7urz/XtXLHJVdRwfGioAKPC614beOzkituV3lJO7bZ3z972ICqkyEpIIEk1CIfmiyW2F1CooX8WpQVbum7/rvXI8cJk9p3cYR2FLZWQwM6eup0OAojj3BTyou47is0wJi7N4sZLcxsUqHJZ+cBHpfIRqTuJfwRkGApztegwUVJ3ocp1iCl+vzrbIuLmgUul2V7fFplVgrtrBDn3hl+4GeNx0ODuSJD9viaOuQDTwm+/J2hZAyd3nBGvsef2yXhONmp8SA5IzaIYeekx1ayeUBMoOnRj8GlE6FUu/ykBfHG/rp6A2hMO4DShJiJ914fbsuxjfgo3RV6DbOzgkp5+VvyPr+tZlVJVP1CloBjpQ1BpXoLecj1phhKaGUWr9+d2+JYJh1KkIM1LAUORmAe/P6wMze5NkN8SIJojRphETY6CCqCl0bqeqx8wc7UoE7gvdqUD/tbYCApR2GVW1QlCTk6n4EqqDEeuSB8dHECd6mtKyjv/jJanAPkxdsJvEDA1pWY4K4/FJKS7uqYa4c8tTk+MVD+FYYt8RTCObRXcTULr357bqh+lxcb6D7FgRcGlP8zyn4Mkns9Y9eHe3IEilaSH708qQQaCoDgAAAAAAAAAg81ZNkY2IDD3nQRFerL1hdd2dwm8qzogBHk0gYgFRezHMjjLgpN3RWzv94HHn+hoxWpUpTnnDakS44Ui5QOYdT2mlXIEzZfR3AHEEfiH4sEQdIFEsodsN6O/170ySOZOpRiPVb6stIY8tk9ddt2Z6qNAw0dWbD3kTkzfAHI+//ednFVHp+tC+QXjnvmCx0OI82mC2AnTTnXZp+GAiqY61sWM+bX2MbGoZg3etCaiiy9oBMWTKKHu7715f9M9LY0ebM8MloAGT/7UifARP9aB8Bjc/x/GTjXDxLPZ6H2o0Csx+4TxZv15jWDseIDpVMWy0JS8wRzk6OBmTyJMbSU0nxyjiQwo9AKk9MIZqQgQuxha+QYR2kJ2WRe72fR83GWZfcl6gDHtqX2zQUxfZvaBwKRkpHh2KCVrws0a755EG+6JXJOwId+qonrH31mIXpLNwsSzSjfVWFKsoN4BEPj+hD+OG/YpTloJzvOtp/ucP/0ug1Ktu4ROMUvk5ZXUh9kgJjic2T34fM0XFV3oupzM3Qdk3nNQm/wUy6kyyY6PmVc/PuYxs/paq+BJ2XmuqtHO1GqaDlkR9/Ic9HBNAuPQZDjou/YL12GnIOLXCv7za3FzHBaRmWsZR1IDZL2oOD0HGlq7IuFQAAAAAAAAAAAASf+3AACHtpbXHluxw+EKNvsZ99nL2WGnxl+19hL21An5snr/q76wd91Q+XKZ33+yzbWRntZ3sn1A7Nm8laWmeTfTqXgviJL0ZZ47AnMNNWEdPOrihJg6f08YJXWPqFys64MuCVfGTCywsmEuP5m6e9hVP1AYdByeh0ynofjj9ncF8wPVf0iewaCNYN49I0BY/ZUNOaUHxmahj6jCUswWcSbix3htuXGpMb6K60GvTm/044oTev15TkyyOejXffZEi/1VJm7YUcXJoMqUKgyFxns/HleO8BGS2GviYcU1BxpY5hMV7Cw1ObH0IB0oX924FeQO4fZeWsein8SQeBNTNHP6AGnhjqUO8vvDocmXwnKXbflo7pi1vtDzy1apSY6WN40iByExT8unHZ3UvtYjI8yVHWNlHWFO7RRz88DoDOnKEc/oVVUPZK87wAlsRrmQVLshnOIZtsjcp9nRG3uTtZl2ccY/no+zm/8uOvdwHRnoF/Kv0rLIa9SqnfcKgOpR5GLy9keGaQq/Ju18rF+Rv4MHENdP4lSoClgX+xN90ti6hb9b8HN/5GLAgTjSfWuENSTI4vm0eag2Q9Mz+jvMYwKO3/6GQ7EmAxALmnzkBEycbqpftfp2UZzTnnAVKsCWmqCknukbk86AH1I8OeGW70y6QdzCBrIK0pYxi0U+UpYQwJ+x3HUz8mhAKkPofs7PLvj4LYxWfq9pWIhu2iA0lHqkZniahMqLyoVb2f73rej7fv8EHyiNbR5gbrIK0pYyXpRIYBkZIukOXj3j/scqVre0FpbBYb/5GQK+93xM9lC/25q9/6BBllNYVrALUP5auw2yF5akUVvXrjy1cFq0S9x6m/Qmfvyj2ae17/+JfBBoFQrsR1DnJqoJjSAAAme5VGYXRZ313jgboe39osDYglvRm3lrEVtiUFNvd8dgrERTJD2Pzugnj2fMukT9NEAlyI1/FZWF9mU7+Ebeo7i0wn9cIy0gc4vzfpnHVKo3UwzxOg0995TyYYr762tgcgobOa8VjIHGSNOhm4zhvzUv+pf5WE0KOzqGKkWyKy88Zf8ByZF74P+FP+u3tqIucO87M5l/K313Zfvi3yujITYDqTK6LFHdrYoZK9Epp09B0D2SQw8zCcOrY29JoLUlQ92aeC4j4/f9r5wQVCSi47dPjpHuLecUX6OHLzaO3i5vvJa+Mynmxo+9ITw1LkiPlri/Ogz5lgAe6SYAGtQGpnnEov1jEnTlJMrwPcO12BDNNiwrNGQ75Msi20CfG3OuA8PKX+Uf5wSnShIjuYt4ucBNb9KM4xKg9TNlNgRW34qHplcnEldKUayiHkMpkO/qm4SHOKZfknPEN7/BOvv+Zn09jo6X2EBdvBEYnkNy9hgEh58lWvRNtmtB7K2Z+lbeti3qA7xIXzlA9mA8ceV7gBQhSFAwsk52djZw6aHERiZiHByeAAAAAA==;fillColor=#B2C9AB;strokeColor=#788AA3;fontColor=#46495D;" parent="MNZySW5f2h_NPKp3rsub-4" vertex="1">
          <mxGeometry x="128.99" y="250" width="208.29" height="90" as="geometry" />
        </mxCell>
        <mxCell id="MNZySW5f2h_NPKp3rsub-8" value="" style="shape=link;html=1;rounded=0;width=16.25;fillColor=#fa6800;strokeColor=#C73500;entryX=0.5;entryY=0;entryDx=0;entryDy=0;exitX=0.5;exitY=1;exitDx=0;exitDy=0;strokeWidth=4;labelBackgroundColor=none;fontColor=default;" edge="1" parent="1" source="MNZySW5f2h_NPKp3rsub-12" target="MNZySW5f2h_NPKp3rsub-13">
          <mxGeometry width="100" relative="1" as="geometry">
            <mxPoint x="745" y="60" as="sourcePoint" />
            <mxPoint x="745" y="1090" as="targetPoint" />
          </mxGeometry>
        </mxCell>
        <mxCell id="MNZySW5f2h_NPKp3rsub-9" value="Sensor" style="swimlane;whiteSpace=wrap;html=1;labelBackgroundColor=none;fillColor=#B2C9AB;strokeColor=#788AA3;fontColor=#46495D;" vertex="1" parent="1">
          <mxGeometry x="827" y="140" width="550" height="360" as="geometry" />
        </mxCell>
        <mxCell id="MNZySW5f2h_NPKp3rsub-10" value="Can bus shield" style="whiteSpace=wrap;html=1;fillColor=#B2C9AB;strokeColor=#788AA3;rounded=1;labelBackgroundColor=none;fontColor=#46495D;" vertex="1" parent="MNZySW5f2h_NPKp3rsub-9">
          <mxGeometry x="198" y="235" width="157" height="35" as="geometry" />
        </mxCell>
        <mxCell id="MNZySW5f2h_NPKp3rsub-11" value="&lt;font style=&quot;font-size: 15px;&quot;&gt;Micro Controller&lt;/font&gt;" style="rounded=1;whiteSpace=wrap;html=1;fillColor=#B2C9AB;strokeColor=#788AA3;labelBackgroundColor=none;fontColor=#46495D;" vertex="1" parent="MNZySW5f2h_NPKp3rsub-9">
          <mxGeometry x="195" y="155" width="160" height="80" as="geometry" />
        </mxCell>
        <mxCell id="MNZySW5f2h_NPKp3rsub-14" value="" style="shape=link;html=1;rounded=0;width=16.25;fillColor=#fa6800;strokeColor=#C73500;exitX=0;exitY=0.5;exitDx=0;exitDy=0;strokeWidth=4;labelBackgroundColor=none;fontColor=default;" edge="1" parent="MNZySW5f2h_NPKp3rsub-9">
          <mxGeometry width="100" relative="1" as="geometry">
            <mxPoint x="198" y="251.25" as="sourcePoint" />
            <mxPoint x="-74" y="253.75" as="targetPoint" />
          </mxGeometry>
        </mxCell>
        <mxCell id="MNZySW5f2h_NPKp3rsub-22" value="" style="edgeStyle=orthogonalEdgeStyle;rounded=0;orthogonalLoop=1;jettySize=auto;html=1;labelBackgroundColor=none;strokeColor=#788AA3;fontColor=default;" edge="1" parent="MNZySW5f2h_NPKp3rsub-9" source="MNZySW5f2h_NPKp3rsub-21" target="MNZySW5f2h_NPKp3rsub-11">
          <mxGeometry relative="1" as="geometry" />
        </mxCell>
        <mxCell id="MNZySW5f2h_NPKp3rsub-21" value="&lt;font style=&quot;font-size: 15px;&quot;&gt;Speed sensor&lt;/font&gt;" style="rounded=1;whiteSpace=wrap;html=1;fillColor=#B2C9AB;strokeColor=#788AA3;labelBackgroundColor=none;fontColor=#46495D;" vertex="1" parent="MNZySW5f2h_NPKp3rsub-9">
          <mxGeometry x="195" y="50" width="160" height="45" as="geometry" />
        </mxCell>
        <mxCell id="MNZySW5f2h_NPKp3rsub-12" value="" style="ellipse;html=1;shape=endState;fillColor=#fa6800;strokeColor=#C73500;labelBackgroundColor=none;fontColor=#000000;" vertex="1" parent="1">
          <mxGeometry x="730" y="20" width="30" height="30" as="geometry" />
        </mxCell>
        <mxCell id="MNZySW5f2h_NPKp3rsub-13" value="" style="ellipse;html=1;shape=endState;fillColor=#fa6800;strokeColor=#C73500;labelBackgroundColor=none;fontColor=#000000;" vertex="1" parent="1">
          <mxGeometry x="730" y="1100" width="30" height="30" as="geometry" />
        </mxCell>
        <mxCell id="MNZySW5f2h_NPKp3rsub-17" value="&lt;font style=&quot;font-size: 22px;&quot;&gt;Power control board&lt;/font&gt;" style="swimlane;whiteSpace=wrap;html=1;startSize=60;labelBackgroundColor=none;fillColor=#B2C9AB;strokeColor=#788AA3;fontColor=#46495D;" vertex="1" parent="1">
          <mxGeometry x="310" y="1250" width="1420" height="700" as="geometry" />
        </mxCell>
        <mxCell id="MNZySW5f2h_NPKp3rsub-19" value="&lt;font style=&quot;font-size: 20px;&quot;&gt;Battery&lt;/font&gt;" style="rounded=1;whiteSpace=wrap;html=1;fillColor=#B2C9AB;strokeColor=#788AA3;labelBackgroundColor=none;fontColor=#46495D;" vertex="1" parent="MNZySW5f2h_NPKp3rsub-17">
          <mxGeometry x="570" y="265" width="280" height="150" as="geometry" />
        </mxCell>
        <mxCell id="MNZySW5f2h_NPKp3rsub-25" value="&lt;font style=&quot;font-size: 20px;&quot;&gt;Right motor&lt;/font&gt;" style="rounded=1;whiteSpace=wrap;html=1;fillColor=#B2C9AB;strokeColor=#788AA3;labelBackgroundColor=none;fontColor=#46495D;" vertex="1" parent="MNZySW5f2h_NPKp3rsub-17">
          <mxGeometry x="1290" y="70" width="111" height="240" as="geometry" />
        </mxCell>
        <mxCell id="MNZySW5f2h_NPKp3rsub-24" value="&lt;font style=&quot;font-size: 20px;&quot;&gt;Left motor&lt;/font&gt;" style="rounded=1;whiteSpace=wrap;html=1;fillColor=#B2C9AB;strokeColor=#788AA3;labelBackgroundColor=none;fontColor=#46495D;" vertex="1" parent="MNZySW5f2h_NPKp3rsub-17">
          <mxGeometry x="1291" y="410" width="110" height="244" as="geometry" />
        </mxCell>
        <mxCell id="MNZySW5f2h_NPKp3rsub-30" value="&lt;font style=&quot;font-size: 20px;&quot;&gt;Servo Motor&lt;/font&gt;" style="rounded=1;whiteSpace=wrap;html=1;fillColor=#B2C9AB;strokeColor=#788AA3;labelBackgroundColor=none;fontColor=#46495D;" vertex="1" parent="MNZySW5f2h_NPKp3rsub-17">
          <mxGeometry x="20" y="215" width="100" height="250" as="geometry" />
        </mxCell>
        <mxCell id="MNZySW5f2h_NPKp3rsub-31" value="&lt;font style=&quot;font-size: 14px;&quot;&gt;PWMA&lt;/font&gt;" style="rounded=0;whiteSpace=wrap;html=1;labelBackgroundColor=none;fillColor=#B2C9AB;strokeColor=#788AA3;fontColor=#46495D;" vertex="1" parent="MNZySW5f2h_NPKp3rsub-17">
          <mxGeometry x="1190" y="120" width="101" height="30" as="geometry" />
        </mxCell>
        <mxCell id="MNZySW5f2h_NPKp3rsub-33" value="&lt;font style=&quot;font-size: 14px;&quot;&gt;AIN1&lt;/font&gt;" style="rounded=0;whiteSpace=wrap;html=1;labelBackgroundColor=none;fillColor=#B2C9AB;strokeColor=#788AA3;fontColor=#46495D;" vertex="1" parent="MNZySW5f2h_NPKp3rsub-17">
          <mxGeometry x="1190" y="175" width="101" height="30" as="geometry" />
        </mxCell>
        <mxCell id="MNZySW5f2h_NPKp3rsub-32" value="&lt;font style=&quot;font-size: 14px;&quot;&gt;AIN2&lt;/font&gt;" style="rounded=0;whiteSpace=wrap;html=1;labelBackgroundColor=none;fillColor=#B2C9AB;strokeColor=#788AA3;fontColor=#46495D;" vertex="1" parent="MNZySW5f2h_NPKp3rsub-17">
          <mxGeometry x="1189" y="230" width="101" height="30" as="geometry" />
        </mxCell>
        <mxCell id="MNZySW5f2h_NPKp3rsub-34" value="&lt;font style=&quot;font-size: 14px;&quot;&gt;BIN2&lt;/font&gt;" style="rounded=0;whiteSpace=wrap;html=1;labelBackgroundColor=none;fillColor=#B2C9AB;strokeColor=#788AA3;fontColor=#46495D;" vertex="1" parent="MNZySW5f2h_NPKp3rsub-17">
          <mxGeometry x="1189" y="450" width="101" height="30" as="geometry" />
        </mxCell>
        <mxCell id="MNZySW5f2h_NPKp3rsub-35" value="&lt;font style=&quot;font-size: 14px;&quot;&gt;BIN1&lt;/font&gt;" style="rounded=0;whiteSpace=wrap;html=1;labelBackgroundColor=none;fillColor=#B2C9AB;strokeColor=#788AA3;fontColor=#46495D;" vertex="1" parent="MNZySW5f2h_NPKp3rsub-17">
          <mxGeometry x="1189" y="505" width="101" height="30" as="geometry" />
        </mxCell>
        <mxCell id="MNZySW5f2h_NPKp3rsub-36" value="PWMB" style="rounded=0;whiteSpace=wrap;html=1;labelBackgroundColor=none;fillColor=#B2C9AB;strokeColor=#788AA3;fontColor=#46495D;" vertex="1" parent="MNZySW5f2h_NPKp3rsub-17">
          <mxGeometry x="1188" y="560" width="101" height="30" as="geometry" />
        </mxCell>
        <mxCell id="MNZySW5f2h_NPKp3rsub-37" value="&lt;font style=&quot;font-size: 20px;&quot;&gt;PCA 9685&lt;/font&gt;&lt;div&gt;&lt;font style=&quot;font-size: 20px;&quot;&gt;Address 0x60&lt;/font&gt;&lt;/div&gt;" style="rounded=1;whiteSpace=wrap;html=1;fillColor=#B2C9AB;strokeColor=#788AA3;labelBackgroundColor=none;fontColor=#46495D;" vertex="1" parent="MNZySW5f2h_NPKp3rsub-17">
          <mxGeometry x="890" y="150" width="100" height="425" as="geometry" />
        </mxCell>
        <mxCell id="MNZySW5f2h_NPKp3rsub-44" style="edgeStyle=orthogonalEdgeStyle;rounded=0;orthogonalLoop=1;jettySize=auto;html=1;entryX=0;entryY=0.5;entryDx=0;entryDy=0;labelBackgroundColor=none;strokeColor=#788AA3;fontColor=default;" edge="1" parent="MNZySW5f2h_NPKp3rsub-17" source="MNZySW5f2h_NPKp3rsub-38" target="MNZySW5f2h_NPKp3rsub-31">
          <mxGeometry relative="1" as="geometry">
            <Array as="points">
              <mxPoint x="1110" y="205" />
              <mxPoint x="1110" y="135" />
            </Array>
          </mxGeometry>
        </mxCell>
        <mxCell id="MNZySW5f2h_NPKp3rsub-38" value="&lt;font style=&quot;font-size: 14px;&quot;&gt;LED0&lt;/font&gt;" style="rounded=0;whiteSpace=wrap;html=1;labelBackgroundColor=none;fillColor=#B2C9AB;strokeColor=#788AA3;fontColor=#46495D;" vertex="1" parent="MNZySW5f2h_NPKp3rsub-17">
          <mxGeometry x="991" y="190" width="101" height="30" as="geometry" />
        </mxCell>
        <mxCell id="MNZySW5f2h_NPKp3rsub-45" style="edgeStyle=orthogonalEdgeStyle;rounded=0;orthogonalLoop=1;jettySize=auto;html=1;entryX=0;entryY=0.75;entryDx=0;entryDy=0;labelBackgroundColor=none;strokeColor=#788AA3;fontColor=default;" edge="1" parent="MNZySW5f2h_NPKp3rsub-17" source="MNZySW5f2h_NPKp3rsub-39" target="MNZySW5f2h_NPKp3rsub-33">
          <mxGeometry relative="1" as="geometry">
            <Array as="points">
              <mxPoint x="1120" y="260" />
              <mxPoint x="1120" y="197" />
            </Array>
          </mxGeometry>
        </mxCell>
        <mxCell id="MNZySW5f2h_NPKp3rsub-39" value="&lt;font style=&quot;font-size: 14px;&quot;&gt;LED1&lt;/font&gt;" style="rounded=0;whiteSpace=wrap;html=1;labelBackgroundColor=none;fillColor=#B2C9AB;strokeColor=#788AA3;fontColor=#46495D;" vertex="1" parent="MNZySW5f2h_NPKp3rsub-17">
          <mxGeometry x="991" y="245" width="101" height="30" as="geometry" />
        </mxCell>
        <mxCell id="MNZySW5f2h_NPKp3rsub-46" style="edgeStyle=orthogonalEdgeStyle;rounded=0;orthogonalLoop=1;jettySize=auto;html=1;entryX=0;entryY=0.5;entryDx=0;entryDy=0;labelBackgroundColor=none;strokeColor=#788AA3;fontColor=default;" edge="1" parent="MNZySW5f2h_NPKp3rsub-17" source="MNZySW5f2h_NPKp3rsub-40" target="MNZySW5f2h_NPKp3rsub-32">
          <mxGeometry relative="1" as="geometry">
            <Array as="points">
              <mxPoint x="1130" y="315" />
              <mxPoint x="1130" y="245" />
            </Array>
          </mxGeometry>
        </mxCell>
        <mxCell id="MNZySW5f2h_NPKp3rsub-40" value="&lt;font style=&quot;font-size: 14px;&quot;&gt;LED2&lt;/font&gt;" style="rounded=0;whiteSpace=wrap;html=1;labelBackgroundColor=none;fillColor=#B2C9AB;strokeColor=#788AA3;fontColor=#46495D;" vertex="1" parent="MNZySW5f2h_NPKp3rsub-17">
          <mxGeometry x="990" y="300" width="101" height="30" as="geometry" />
        </mxCell>
        <mxCell id="MNZySW5f2h_NPKp3rsub-47" style="edgeStyle=orthogonalEdgeStyle;rounded=0;orthogonalLoop=1;jettySize=auto;html=1;entryX=0;entryY=0.5;entryDx=0;entryDy=0;labelBackgroundColor=none;strokeColor=#788AA3;fontColor=default;" edge="1" parent="MNZySW5f2h_NPKp3rsub-17" source="MNZySW5f2h_NPKp3rsub-41" target="MNZySW5f2h_NPKp3rsub-34">
          <mxGeometry relative="1" as="geometry">
            <Array as="points">
              <mxPoint x="1130" y="395" />
              <mxPoint x="1130" y="465" />
            </Array>
          </mxGeometry>
        </mxCell>
        <mxCell id="MNZySW5f2h_NPKp3rsub-41" value="&lt;font style=&quot;font-size: 14px;&quot;&gt;LED5&lt;/font&gt;" style="rounded=0;whiteSpace=wrap;html=1;labelBackgroundColor=none;fillColor=#B2C9AB;strokeColor=#788AA3;fontColor=#46495D;" vertex="1" parent="MNZySW5f2h_NPKp3rsub-17">
          <mxGeometry x="992" y="380" width="101" height="30" as="geometry" />
        </mxCell>
        <mxCell id="MNZySW5f2h_NPKp3rsub-48" style="edgeStyle=orthogonalEdgeStyle;rounded=0;orthogonalLoop=1;jettySize=auto;html=1;entryX=0;entryY=0.5;entryDx=0;entryDy=0;labelBackgroundColor=none;strokeColor=#788AA3;fontColor=default;" edge="1" parent="MNZySW5f2h_NPKp3rsub-17" source="MNZySW5f2h_NPKp3rsub-42" target="MNZySW5f2h_NPKp3rsub-35">
          <mxGeometry relative="1" as="geometry">
            <Array as="points">
              <mxPoint x="1120" y="450" />
              <mxPoint x="1120" y="520" />
            </Array>
          </mxGeometry>
        </mxCell>
        <mxCell id="MNZySW5f2h_NPKp3rsub-42" value="&lt;font style=&quot;font-size: 14px;&quot;&gt;LED6&lt;/font&gt;" style="rounded=0;whiteSpace=wrap;html=1;labelBackgroundColor=none;fillColor=#B2C9AB;strokeColor=#788AA3;fontColor=#46495D;" vertex="1" parent="MNZySW5f2h_NPKp3rsub-17">
          <mxGeometry x="992" y="435" width="101" height="30" as="geometry" />
        </mxCell>
        <mxCell id="MNZySW5f2h_NPKp3rsub-49" style="edgeStyle=orthogonalEdgeStyle;rounded=0;orthogonalLoop=1;jettySize=auto;html=1;entryX=0;entryY=0.5;entryDx=0;entryDy=0;labelBackgroundColor=none;strokeColor=#788AA3;fontColor=default;" edge="1" parent="MNZySW5f2h_NPKp3rsub-17" source="MNZySW5f2h_NPKp3rsub-43" target="MNZySW5f2h_NPKp3rsub-36">
          <mxGeometry relative="1" as="geometry">
            <Array as="points">
              <mxPoint x="1110" y="505" />
              <mxPoint x="1110" y="575" />
            </Array>
          </mxGeometry>
        </mxCell>
        <mxCell id="MNZySW5f2h_NPKp3rsub-43" value="&lt;font style=&quot;font-size: 14px;&quot;&gt;LED7&lt;/font&gt;" style="rounded=0;whiteSpace=wrap;html=1;labelBackgroundColor=none;fillColor=#B2C9AB;strokeColor=#788AA3;fontColor=#46495D;" vertex="1" parent="MNZySW5f2h_NPKp3rsub-17">
          <mxGeometry x="991" y="490" width="101" height="30" as="geometry" />
        </mxCell>
        <mxCell id="MNZySW5f2h_NPKp3rsub-50" value="&lt;font style=&quot;font-size: 20px;&quot;&gt;PCA 9685&lt;/font&gt;&lt;div&gt;&lt;font style=&quot;font-size: 20px;&quot;&gt;Address 0x40&lt;/font&gt;&lt;/div&gt;" style="rounded=1;whiteSpace=wrap;html=1;fillColor=#B2C9AB;strokeColor=#788AA3;labelBackgroundColor=none;fontColor=#46495D;" vertex="1" parent="MNZySW5f2h_NPKp3rsub-17">
          <mxGeometry x="410" y="137.5" width="100" height="425" as="geometry" />
        </mxCell>
        <mxCell id="MNZySW5f2h_NPKp3rsub-53" value="" style="edgeStyle=orthogonalEdgeStyle;rounded=0;orthogonalLoop=1;jettySize=auto;html=1;labelBackgroundColor=none;strokeColor=#788AA3;fontColor=default;" edge="1" parent="MNZySW5f2h_NPKp3rsub-17" source="MNZySW5f2h_NPKp3rsub-51" target="MNZySW5f2h_NPKp3rsub-52">
          <mxGeometry relative="1" as="geometry" />
        </mxCell>
        <mxCell id="MNZySW5f2h_NPKp3rsub-51" value="&lt;font style=&quot;font-size: 14px;&quot;&gt;LED0&lt;/font&gt;" style="rounded=0;whiteSpace=wrap;html=1;labelBackgroundColor=none;fillColor=#B2C9AB;strokeColor=#788AA3;fontColor=#46495D;" vertex="1" parent="MNZySW5f2h_NPKp3rsub-17">
          <mxGeometry x="309" y="310" width="101" height="30" as="geometry" />
        </mxCell>
        <mxCell id="MNZySW5f2h_NPKp3rsub-52" value="&lt;font style=&quot;font-size: 14px;&quot;&gt;PWM&lt;/font&gt;" style="rounded=0;whiteSpace=wrap;html=1;labelBackgroundColor=none;fillColor=#B2C9AB;strokeColor=#788AA3;fontColor=#46495D;" vertex="1" parent="MNZySW5f2h_NPKp3rsub-17">
          <mxGeometry x="120" y="310" width="101" height="30" as="geometry" />
        </mxCell>
        <mxCell id="MNZySW5f2h_NPKp3rsub-61" value="" style="shape=link;html=1;rounded=0;width=16.25;fillColor=#1ba1e2;strokeColor=#006EAF;strokeWidth=4;labelBackgroundColor=none;fontColor=default;" edge="1" parent="MNZySW5f2h_NPKp3rsub-17">
          <mxGeometry width="100" relative="1" as="geometry">
            <mxPoint x="459" y="-60" as="sourcePoint" />
            <mxPoint x="459" y="140" as="targetPoint" />
          </mxGeometry>
        </mxCell>
        <mxCell id="MNZySW5f2h_NPKp3rsub-56" value="" style="shape=link;html=1;rounded=0;width=16.25;fillColor=#1ba1e2;strokeColor=#006EAF;strokeWidth=4;entryX=1;entryY=0.5;entryDx=0;entryDy=0;exitX=0;exitY=0.5;exitDx=0;exitDy=0;labelBackgroundColor=none;fontColor=default;" edge="1" parent="1" source="MNZySW5f2h_NPKp3rsub-57" target="MNZySW5f2h_NPKp3rsub-58">
          <mxGeometry width="100" relative="1" as="geometry">
            <mxPoint x="1760" y="1190" as="sourcePoint" />
            <mxPoint x="280" y="1190" as="targetPoint" />
          </mxGeometry>
        </mxCell>
        <mxCell id="MNZySW5f2h_NPKp3rsub-57" value="" style="ellipse;html=1;shape=endState;fillColor=#1ba1e2;strokeColor=#006EAF;labelBackgroundColor=none;fontColor=#ffffff;" vertex="1" parent="1">
          <mxGeometry x="1780" y="1169" width="30" height="30" as="geometry" />
        </mxCell>
        <mxCell id="MNZySW5f2h_NPKp3rsub-58" value="" style="ellipse;html=1;shape=endState;fillColor=#1ba1e2;strokeColor=#006EAF;labelBackgroundColor=none;fontColor=#ffffff;" vertex="1" parent="1">
          <mxGeometry x="230" y="1169" width="30" height="30" as="geometry" />
        </mxCell>
        <mxCell id="MNZySW5f2h_NPKp3rsub-60" value="" style="shape=link;html=1;rounded=0;width=16.25;fillColor=#1ba1e2;strokeColor=#006EAF;strokeWidth=4;entryX=0.5;entryY=0;entryDx=0;entryDy=0;labelBackgroundColor=none;fontColor=default;" edge="1" parent="1" target="MNZySW5f2h_NPKp3rsub-37">
          <mxGeometry width="100" relative="1" as="geometry">
            <mxPoint x="1250" y="1190" as="sourcePoint" />
            <mxPoint x="270" y="1194" as="targetPoint" />
          </mxGeometry>
        </mxCell>
        <mxCell id="MNZySW5f2h_NPKp3rsub-63" value="&lt;font style=&quot;font-size: 24px;&quot;&gt;I2C Bus 1&lt;/font&gt;" style="text;html=1;align=center;verticalAlign=middle;whiteSpace=wrap;rounded=0;labelBackgroundColor=none;fontColor=#46495D;" vertex="1" parent="1">
          <mxGeometry x="800" y="1140" width="260" height="40" as="geometry" />
        </mxCell>
        <mxCell id="MNZySW5f2h_NPKp3rsub-64" value="" style="shape=link;html=1;rounded=0;width=16.25;fillColor=#fa6800;strokeColor=#C73500;strokeWidth=4;labelBackgroundColor=none;fontColor=default;entryX=1;entryY=0.5;entryDx=0;entryDy=0;" edge="1" parent="1" target="MNZySW5f2h_NPKp3rsub-5">
          <mxGeometry width="100" relative="1" as="geometry">
            <mxPoint x="740" y="733" as="sourcePoint" />
            <mxPoint x="500" y="732.5" as="targetPoint" />
          </mxGeometry>
        </mxCell>
      </root>
    </mxGraphModel>
  </diagram>
</mxfile>
